<svg xmlns="http://www.w3.org/2000/svg" style="display: none;"><symbol id="restaurant" viewBox="0 0 512 512"><title>restaurant</title><g> <g> <path d="M498.682,435.326L297.917,234.56L63.357,0H45.026l-3.743,9.511c-9.879,25.104-14.1,50.78-12.205,74.249 c2.16,26.752,12.323,49.913,29.392,66.982L241.58,333.852l24.152-24.152l169.285,189.293c16.84,16.84,45.825,17.84,63.665,0 C516.236,481.439,516.236,452.879,498.682,435.326z"/> </g> </g><g> <g> <path d="M156.728,291.442L13.317,434.853c-17.552,17.552-17.552,46.113,0,63.665c16.674,16.674,45.519,18.146,63.665,0 l143.412-143.412L156.728,291.442z"/> </g> </g><g> <g> <path d="M490.253,85.249l-81.351,81.35l-21.223-21.222l81.351-81.351l-21.222-21.222l-81.35,81.35l-21.222-21.222l81.351-81.35 L405.366,0.361L299.256,106.471c-12.981,12.981-20.732,30.217-21.828,48.535c-0.277,4.641-1.329,9.206-3.074,13.548l68.929,68.929 c4.342-1.747,8.908-2.798,13.548-3.075c18.318-1.093,35.554-8.846,48.535-21.827l106.11-106.109L490.253,85.249z"/> </g> </g></symbol><symbol id="instagram" viewBox="0 0 89.758 89.758"><title>instagram</title><path style="fill:#6A453B;" d="M58.255,23.88H31.503c-4.27,0-7.744,3.474-7.744,7.744v26.752c0,4.27,3.474,7.745,7.744,7.745 h26.752c4.27,0,7.745-3.474,7.745-7.745V31.624C66,27.354,62.526,23.88,58.255,23.88z M44.879,58.906 c-7.667,0-13.905-6.238-13.905-13.906c0-7.667,6.238-13.905,13.905-13.905c7.668,0,13.906,6.238,13.906,13.905 C58.785,52.667,52.546,58.906,44.879,58.906z M59.232,33.97c-1.815,0-3.291-1.476-3.291-3.29c0-1.814,1.476-3.29,3.291-3.29 c1.814,0,3.29,1.476,3.29,3.29C62.522,32.494,61.046,33.97,59.232,33.97z"/><path style="fill:#6A453B;" d="M44.879,36.971c-4.426,0-8.03,3.602-8.03,8.028c0,4.428,3.604,8.031,8.03,8.031 c4.428,0,8.029-3.603,8.029-8.031C52.908,40.574,49.306,36.971,44.879,36.971z"/><path style="fill:#6A453B;" d="M44.879,0C20.094,0,0,20.094,0,44.879c0,24.785,20.094,44.879,44.879,44.879 c24.785,0,44.879-20.094,44.879-44.879C89.758,20.094,69.664,0,44.879,0z M71.875,58.376c0,7.511-6.109,13.62-13.62,13.62H31.503 c-7.51,0-13.62-6.109-13.62-13.62V31.624c0-7.51,6.11-13.62,13.62-13.62h26.752c7.511,0,13.62,6.11,13.62,13.62V58.376z"/></symbol><symbol id="facebook-logo-button" viewBox="0 0 486.392 486.392"><title>facebook-logo-button</title><path style="fill:#010002;" d="M243.196,0C108.891,0,0,108.891,0,243.196s108.891,243.196,243.196,243.196 s243.196-108.891,243.196-243.196C486.392,108.861,377.501,0,243.196,0z M306.062,243.165l-39.854,0.03l-0.03,145.917h-54.689 V243.196H175.01v-50.281l36.479-0.03l-0.061-29.609c0-41.039,11.126-65.997,59.431-65.997h40.249v50.311h-25.171 c-18.817,0-19.729,7.022-19.729,20.124l-0.061,25.171h45.234L306.062,243.165z"/></symbol><symbol id="twitter-logo-button" viewBox="0 0 49.652 49.652"><title>twitter-logo-button</title><path d="M24.826,0C11.137,0,0,11.137,0,24.826c0,13.688,11.137,24.826,24.826,24.826c13.688,0,24.826-11.138,24.826-24.826 C49.652,11.137,38.516,0,24.826,0z M35.901,19.144c0.011,0.246,0.017,0.494,0.017,0.742c0,7.551-5.746,16.255-16.259,16.255 c-3.227,0-6.231-0.943-8.759-2.565c0.447,0.053,0.902,0.08,1.363,0.08c2.678,0,5.141-0.914,7.097-2.446 c-2.5-0.046-4.611-1.698-5.338-3.969c0.348,0.066,0.707,0.103,1.074,0.103c0.521,0,1.027-0.068,1.506-0.199 c-2.614-0.524-4.583-2.833-4.583-5.603c0-0.024,0-0.049,0.001-0.072c0.77,0.427,1.651,0.685,2.587,0.714 c-1.532-1.023-2.541-2.773-2.541-4.755c0-1.048,0.281-2.03,0.773-2.874c2.817,3.458,7.029,5.732,11.777,5.972 c-0.098-0.419-0.147-0.854-0.147-1.303c0-3.155,2.558-5.714,5.713-5.714c1.644,0,3.127,0.694,4.171,1.804 c1.303-0.256,2.523-0.73,3.63-1.387c-0.43,1.335-1.333,2.454-2.516,3.162c1.157-0.138,2.261-0.444,3.282-0.899 C37.987,17.334,37.018,18.341,35.901,19.144z"/></symbol></svg>